<?xml version="1.0" encoding="utf-8" standalone="no"?>
<!DOCTYPE svg PUBLIC "-//W3C//DTD SVG 1.1//EN"
  "http://www.w3.org/Graphics/SVG/1.1/DTD/svg11.dtd">
<svg height="218.094pt" version="1.1" viewBox="0 0 596.327812 218.094" width="596.327812pt" xmlns="http://www.w3.org/2000/svg" xmlns:xlink="http://www.w3.org/1999/xlink">
 <metadata>
  <rdf:RDF xmlns:cc="http://creativecommons.org/ns#" xmlns:dc="http://purl.org/dc/elements/1.1/" xmlns:rdf="http://www.w3.org/1999/02/22-rdf-syntax-ns#">
   <cc:Work>
    <dc:type rdf:resource="http://purl.org/dc/dcmitype/StillImage"/>
    <dc:date>2021-05-24T19:46:13.404701</dc:date>
    <dc:format>image/svg+xml</dc:format>
    <dc:creator>
     <cc:Agent>
      <dc:title>Matplotlib v3.4.2, https://matplotlib.org/</dc:title>
     </cc:Agent>
    </dc:creator>
   </cc:Work>
  </rdf:RDF>
 </metadata>
 <defs>
  <style type="text/css">*{stroke-linecap:butt;stroke-linejoin:round;}</style>
 </defs>
 <g id="figure_1">
  <g id="patch_1">
   <path d="M 0 218.094 
L 596.327812 218.094 
L 596.327812 0 
L 0 0 
z
" style="fill:none;"/>
  </g>
  <g id="axes_1">
   <g id="patch_2">
    <path clip-path="url(#p5d2975a054)" d="M 153.046875 35.25 
C 153.046875 34.235936 152.64361 33.262368 151.926558 32.545317 
C 151.209507 31.828265 150.235939 31.425 149.221875 31.425 
C 148.207811 31.425 147.234243 31.828265 146.517192 32.545317 
C 145.80014 33.262368 145.396875 34.235936 145.396875 35.25 
" style="fill:none;stroke:#000000;stroke-linejoin:miter;"/>
   </g>
   <g id="patch_3">
    <path clip-path="url(#p5d2975a054)" d="M 160.696875 35.25 
C 160.696875 34.235936 160.29361 33.262368 159.576558 32.545317 
C 158.859507 31.828265 157.885939 31.425 156.871875 31.425 
C 155.857811 31.425 154.884243 31.828265 154.167192 32.545317 
C 153.45014 33.262368 153.046875 34.235936 153.046875 35.25 
" style="fill:none;stroke:#000000;stroke-linejoin:miter;"/>
   </g>
   <g id="patch_4">
    <path clip-path="url(#p5d2975a054)" d="M 168.346875 35.25 
C 168.346875 34.235936 167.94361 33.262368 167.226558 32.545317 
C 166.509507 31.828265 165.535939 31.425 164.521875 31.425 
C 163.507811 31.425 162.534243 31.828265 161.817192 32.545317 
C 161.10014 33.262368 160.696875 34.235936 160.696875 35.25 
" style="fill:none;stroke:#000000;stroke-linejoin:miter;"/>
   </g>
   <g id="patch_5">
    <path clip-path="url(#p5d2975a054)" d="M 175.996875 35.25 
C 175.996875 34.235936 175.59361 33.262368 174.876558 32.545317 
C 174.159507 31.828265 173.185939 31.425 172.171875 31.425 
C 171.157811 31.425 170.184243 31.828265 169.467192 32.545317 
C 168.75014 33.262368 168.346875 34.235936 168.346875 35.25 
" style="fill:none;stroke:#000000;stroke-linejoin:miter;"/>
   </g>
   <g id="patch_6">
    <path clip-path="url(#p5d2975a054)" d="M 328.996875 134.7 
C 330.010939 134.7 330.984507 134.296735 331.701558 133.579683 
C 332.41861 132.862632 332.821875 131.889064 332.821875 130.875 
C 332.821875 129.860936 332.41861 128.887368 331.701558 128.170317 
C 330.984507 127.453265 330.010939 127.05 328.996875 127.05 
" style="fill:none;stroke:#000000;stroke-linejoin:miter;"/>
   </g>
   <g id="patch_7">
    <path clip-path="url(#p5d2975a054)" d="M 328.996875 142.35 
C 330.010939 142.35 330.984507 141.946735 331.701558 141.229683 
C 332.41861 140.512632 332.821875 139.539064 332.821875 138.525 
C 332.821875 137.510936 332.41861 136.537368 331.701558 135.820317 
C 330.984507 135.103265 330.010939 134.7 328.996875 134.7 
" style="fill:none;stroke:#000000;stroke-linejoin:miter;"/>
   </g>
   <g id="patch_8">
    <path clip-path="url(#p5d2975a054)" d="M 328.996875 150 
C 330.010939 150 330.984507 149.596735 331.701558 148.879683 
C 332.41861 148.162632 332.821875 147.189064 332.821875 146.175 
C 332.821875 145.160936 332.41861 144.187368 331.701558 143.470317 
C 330.984507 142.753265 330.010939 142.35 328.996875 142.35 
" style="fill:none;stroke:#000000;stroke-linejoin:miter;"/>
   </g>
   <g id="patch_9">
    <path clip-path="url(#p5d2975a054)" d="M 328.996875 157.65 
C 330.010939 157.65 330.984507 157.246735 331.701558 156.529683 
C 332.41861 155.812632 332.821875 154.839064 332.821875 153.825 
C 332.821875 152.810936 332.41861 151.837368 331.701558 151.120317 
C 330.984507 150.403265 330.010939 150 328.996875 150 
" style="fill:none;stroke:#000000;stroke-linejoin:miter;"/>
   </g>
   <g id="patch_10">
    <path clip-path="url(#p5d2975a054)" d="M 336.646875 35.25 
C 336.646875 34.235936 336.24361 33.262368 335.526558 32.545317 
C 334.809507 31.828265 333.835939 31.425 332.821875 31.425 
C 331.807811 31.425 330.834243 31.828265 330.117192 32.545317 
C 329.40014 33.262368 328.996875 34.235936 328.996875 35.25 
" style="fill:none;stroke:#000000;stroke-linejoin:miter;"/>
   </g>
   <g id="patch_11">
    <path clip-path="url(#p5d2975a054)" d="M 344.296875 35.25 
C 344.296875 34.235936 343.89361 33.262368 343.176558 32.545317 
C 342.459507 31.828265 341.485939 31.425 340.471875 31.425 
C 339.457811 31.425 338.484243 31.828265 337.767192 32.545317 
C 337.05014 33.262368 336.646875 34.235936 336.646875 35.25 
" style="fill:none;stroke:#000000;stroke-linejoin:miter;"/>
   </g>
   <g id="patch_12">
    <path clip-path="url(#p5d2975a054)" d="M 351.946875 35.25 
C 351.946875 34.235936 351.54361 33.262368 350.826558 32.545317 
C 350.109507 31.828265 349.135939 31.425 348.121875 31.425 
C 347.107811 31.425 346.134243 31.828265 345.417192 32.545317 
C 344.70014 33.262368 344.296875 34.235936 344.296875 35.25 
" style="fill:none;stroke:#000000;stroke-linejoin:miter;"/>
   </g>
   <g id="patch_13">
    <path clip-path="url(#p5d2975a054)" d="M 359.596875 35.25 
C 359.596875 34.235936 359.19361 33.262368 358.476558 32.545317 
C 357.759507 31.828265 356.785939 31.425 355.771875 31.425 
C 354.757811 31.425 353.784243 31.828265 353.067192 32.545317 
C 352.35014 33.262368 351.946875 34.235936 351.946875 35.25 
" style="fill:none;stroke:#000000;stroke-linejoin:miter;"/>
   </g>
   <g id="line2d_1">
    <path clip-path="url(#p5d2975a054)" d="M 53.596875 35.25 
L 84.196875 35.25 
L 114.796875 35.25 
" style="fill:none;stroke:#000000;stroke-linecap:round;"/>
   </g>
   <g id="line2d_2">
    <path clip-path="url(#p5d2975a054)" d="M 114.796875 35.25 
L 145.396875 35.25 
M 175.996875 35.25 
L 206.596875 35.25 
" style="fill:none;stroke:#000000;stroke-linecap:round;"/>
   </g>
   <g id="line2d_3">
    <path clip-path="url(#p5d2975a054)" d="M 206.596875 35.25 
L 249.742875 35.25 
M 249.742875 27.6 
L 249.742875 42.9 
M 255.250875 27.6 
L 255.250875 42.9 
M 255.250875 35.25 
L 298.396875 35.25 
" style="fill:none;stroke:#000000;stroke-linecap:round;"/>
   </g>
   <g id="line2d_4">
    <path clip-path="url(#p5d2975a054)" d="M 298.396875 35.25 
L 298.396875 65.85 
L 298.396875 96.45 
" style="fill:none;stroke:#000000;stroke-linecap:round;"/>
   </g>
   <g id="line2d_5">
    <path clip-path="url(#p5d2975a054)" d="M 298.396875 96.45 
L 283.096875 96.45 
L 267.796875 96.45 
" style="fill:none;stroke:#000000;stroke-linecap:round;"/>
   </g>
   <g id="line2d_6">
    <path clip-path="url(#p5d2975a054)" d="M 267.796875 96.45 
L 267.796875 139.596 
M 275.446875 139.596 
L 260.146875 139.596 
M 275.446875 145.104 
L 260.146875 145.104 
M 267.796875 145.104 
L 267.796875 188.25 
" style="fill:none;stroke:#000000;stroke-linecap:round;"/>
   </g>
   <g id="line2d_7">
    <path clip-path="url(#p5d2975a054)" d="M 267.796875 188.25 
L 267.796875 200.49 
L 260.146875 200.49 
L 275.446875 200.49 
M 262.441875 204.162 
L 273.151875 204.162 
M 266.266875 207.834 
L 269.326875 207.834 
" style="fill:none;stroke:#000000;stroke-linecap:round;"/>
   </g>
   <g id="line2d_8">
    <path clip-path="url(#p5d2975a054)" d="M 298.396875 96.45 
L 313.696875 96.45 
L 328.996875 96.45 
" style="fill:none;stroke:#000000;stroke-linecap:round;"/>
   </g>
   <g id="line2d_9">
    <path clip-path="url(#p5d2975a054)" d="M 328.996875 96.45 
L 328.996875 127.05 
M 328.996875 157.65 
L 328.996875 188.25 
" style="fill:none;stroke:#000000;stroke-linecap:round;"/>
   </g>
   <g id="line2d_10">
    <path clip-path="url(#p5d2975a054)" d="M 328.996875 188.25 
L 328.996875 200.49 
L 321.346875 200.49 
L 336.646875 200.49 
M 323.641875 204.162 
L 334.351875 204.162 
M 327.466875 207.834 
L 330.526875 207.834 
" style="fill:none;stroke:#000000;stroke-linecap:round;"/>
   </g>
   <g id="line2d_11">
    <path clip-path="url(#p5d2975a054)" d="M 298.396875 35.25 
L 328.996875 35.25 
M 359.596875 35.25 
L 390.196875 35.25 
" style="fill:none;stroke:#000000;stroke-linecap:round;"/>
   </g>
   <g id="line2d_12">
    <path clip-path="url(#p5d2975a054)" d="M 390.196875 35.25 
L 433.342875 35.25 
M 433.342875 27.6 
L 433.342875 42.9 
M 438.850875 27.6 
L 438.850875 42.9 
M 438.850875 35.25 
L 481.996875 35.25 
" style="fill:none;stroke:#000000;stroke-linecap:round;"/>
   </g>
   <g id="line2d_13">
    <path clip-path="url(#p5d2975a054)" d="M 481.996875 35.25 
L 512.596875 35.25 
L 543.196875 35.25 
" style="fill:none;stroke:#000000;stroke-linecap:round;"/>
   </g>
   <g id="text_1">
    <!-- 25.03 nH -->
    <g transform="translate(133.298438 25.869394)scale(0.12 -0.12)">
     <defs>
      <path d="M 1228 531 
L 3431 531 
L 3431 0 
L 469 0 
L 469 531 
Q 828 903 1448 1529 
Q 2069 2156 2228 2338 
Q 2531 2678 2651 2914 
Q 2772 3150 2772 3378 
Q 2772 3750 2511 3984 
Q 2250 4219 1831 4219 
Q 1534 4219 1204 4116 
Q 875 4013 500 3803 
L 500 4441 
Q 881 4594 1212 4672 
Q 1544 4750 1819 4750 
Q 2544 4750 2975 4387 
Q 3406 4025 3406 3419 
Q 3406 3131 3298 2873 
Q 3191 2616 2906 2266 
Q 2828 2175 2409 1742 
Q 1991 1309 1228 531 
z
" id="DejaVuSans-32" transform="scale(0.015625)"/>
      <path d="M 691 4666 
L 3169 4666 
L 3169 4134 
L 1269 4134 
L 1269 2991 
Q 1406 3038 1543 3061 
Q 1681 3084 1819 3084 
Q 2600 3084 3056 2656 
Q 3513 2228 3513 1497 
Q 3513 744 3044 326 
Q 2575 -91 1722 -91 
Q 1428 -91 1123 -41 
Q 819 9 494 109 
L 494 744 
Q 775 591 1075 516 
Q 1375 441 1709 441 
Q 2250 441 2565 725 
Q 2881 1009 2881 1497 
Q 2881 1984 2565 2268 
Q 2250 2553 1709 2553 
Q 1456 2553 1204 2497 
Q 953 2441 691 2322 
L 691 4666 
z
" id="DejaVuSans-35" transform="scale(0.015625)"/>
      <path d="M 684 794 
L 1344 794 
L 1344 0 
L 684 0 
L 684 794 
z
" id="DejaVuSans-2e" transform="scale(0.015625)"/>
      <path d="M 2034 4250 
Q 1547 4250 1301 3770 
Q 1056 3291 1056 2328 
Q 1056 1369 1301 889 
Q 1547 409 2034 409 
Q 2525 409 2770 889 
Q 3016 1369 3016 2328 
Q 3016 3291 2770 3770 
Q 2525 4250 2034 4250 
z
M 2034 4750 
Q 2819 4750 3233 4129 
Q 3647 3509 3647 2328 
Q 3647 1150 3233 529 
Q 2819 -91 2034 -91 
Q 1250 -91 836 529 
Q 422 1150 422 2328 
Q 422 3509 836 4129 
Q 1250 4750 2034 4750 
z
" id="DejaVuSans-30" transform="scale(0.015625)"/>
      <path d="M 2597 2516 
Q 3050 2419 3304 2112 
Q 3559 1806 3559 1356 
Q 3559 666 3084 287 
Q 2609 -91 1734 -91 
Q 1441 -91 1130 -33 
Q 819 25 488 141 
L 488 750 
Q 750 597 1062 519 
Q 1375 441 1716 441 
Q 2309 441 2620 675 
Q 2931 909 2931 1356 
Q 2931 1769 2642 2001 
Q 2353 2234 1838 2234 
L 1294 2234 
L 1294 2753 
L 1863 2753 
Q 2328 2753 2575 2939 
Q 2822 3125 2822 3475 
Q 2822 3834 2567 4026 
Q 2313 4219 1838 4219 
Q 1578 4219 1281 4162 
Q 984 4106 628 3988 
L 628 4550 
Q 988 4650 1302 4700 
Q 1616 4750 1894 4750 
Q 2613 4750 3031 4423 
Q 3450 4097 3450 3541 
Q 3450 3153 3228 2886 
Q 3006 2619 2597 2516 
z
" id="DejaVuSans-33" transform="scale(0.015625)"/>
      <path id="DejaVuSans-20" transform="scale(0.015625)"/>
      <path d="M 3513 2113 
L 3513 0 
L 2938 0 
L 2938 2094 
Q 2938 2591 2744 2837 
Q 2550 3084 2163 3084 
Q 1697 3084 1428 2787 
Q 1159 2491 1159 1978 
L 1159 0 
L 581 0 
L 581 3500 
L 1159 3500 
L 1159 2956 
Q 1366 3272 1645 3428 
Q 1925 3584 2291 3584 
Q 2894 3584 3203 3211 
Q 3513 2838 3513 2113 
z
" id="DejaVuSans-6e" transform="scale(0.015625)"/>
      <path d="M 628 4666 
L 1259 4666 
L 1259 2753 
L 3553 2753 
L 3553 4666 
L 4184 4666 
L 4184 0 
L 3553 0 
L 3553 2222 
L 1259 2222 
L 1259 0 
L 628 0 
L 628 4666 
z
" id="DejaVuSans-48" transform="scale(0.015625)"/>
     </defs>
     <use xlink:href="#DejaVuSans-32"/>
     <use x="63.623047" xlink:href="#DejaVuSans-35"/>
     <use x="127.246094" xlink:href="#DejaVuSans-2e"/>
     <use x="159.033203" xlink:href="#DejaVuSans-30"/>
     <use x="222.65625" xlink:href="#DejaVuSans-33"/>
     <use x="286.279297" xlink:href="#DejaVuSans-20"/>
     <use x="318.066406" xlink:href="#DejaVuSans-6e"/>
     <use x="381.445312" xlink:href="#DejaVuSans-48"/>
    </g>
   </g>
   <g id="text_2">
    <!-- 4.22 pF -->
    <g transform="translate(229.970625 22.044375)scale(0.12 -0.12)">
     <defs>
      <path d="M 2419 4116 
L 825 1625 
L 2419 1625 
L 2419 4116 
z
M 2253 4666 
L 3047 4666 
L 3047 1625 
L 3713 1625 
L 3713 1100 
L 3047 1100 
L 3047 0 
L 2419 0 
L 2419 1100 
L 313 1100 
L 313 1709 
L 2253 4666 
z
" id="DejaVuSans-34" transform="scale(0.015625)"/>
      <path d="M 1159 525 
L 1159 -1331 
L 581 -1331 
L 581 3500 
L 1159 3500 
L 1159 2969 
Q 1341 3281 1617 3432 
Q 1894 3584 2278 3584 
Q 2916 3584 3314 3078 
Q 3713 2572 3713 1747 
Q 3713 922 3314 415 
Q 2916 -91 2278 -91 
Q 1894 -91 1617 61 
Q 1341 213 1159 525 
z
M 3116 1747 
Q 3116 2381 2855 2742 
Q 2594 3103 2138 3103 
Q 1681 3103 1420 2742 
Q 1159 2381 1159 1747 
Q 1159 1113 1420 752 
Q 1681 391 2138 391 
Q 2594 391 2855 752 
Q 3116 1113 3116 1747 
z
" id="DejaVuSans-70" transform="scale(0.015625)"/>
      <path d="M 628 4666 
L 3309 4666 
L 3309 4134 
L 1259 4134 
L 1259 2759 
L 3109 2759 
L 3109 2228 
L 1259 2228 
L 1259 0 
L 628 0 
L 628 4666 
z
" id="DejaVuSans-46" transform="scale(0.015625)"/>
     </defs>
     <use xlink:href="#DejaVuSans-34"/>
     <use x="63.623047" xlink:href="#DejaVuSans-2e"/>
     <use x="95.410156" xlink:href="#DejaVuSans-32"/>
     <use x="159.033203" xlink:href="#DejaVuSans-32"/>
     <use x="222.65625" xlink:href="#DejaVuSans-20"/>
     <use x="254.443359" xlink:href="#DejaVuSans-70"/>
     <use x="317.919922" xlink:href="#DejaVuSans-46"/>
    </g>
   </g>
   <g id="text_3">
    <!-- 15.44 pF -->
    <g transform="translate(204.399375 145.66125)scale(0.12 -0.12)">
     <defs>
      <path d="M 794 531 
L 1825 531 
L 1825 4091 
L 703 3866 
L 703 4441 
L 1819 4666 
L 2450 4666 
L 2450 531 
L 3481 531 
L 3481 0 
L 794 0 
L 794 531 
z
" id="DejaVuSans-31" transform="scale(0.015625)"/>
     </defs>
     <use xlink:href="#DejaVuSans-31"/>
     <use x="63.623047" xlink:href="#DejaVuSans-35"/>
     <use x="127.246094" xlink:href="#DejaVuSans-2e"/>
     <use x="159.033203" xlink:href="#DejaVuSans-34"/>
     <use x="222.65625" xlink:href="#DejaVuSans-34"/>
     <use x="286.279297" xlink:href="#DejaVuSans-20"/>
     <use x="318.066406" xlink:href="#DejaVuSans-70"/>
     <use x="381.542969" xlink:href="#DejaVuSans-46"/>
    </g>
   </g>
   <g id="text_4">
    <!-- 6.83 nH -->
    <g transform="translate(278.775 145.66125)scale(0.12 -0.12)">
     <defs>
      <path d="M 2113 2584 
Q 1688 2584 1439 2293 
Q 1191 2003 1191 1497 
Q 1191 994 1439 701 
Q 1688 409 2113 409 
Q 2538 409 2786 701 
Q 3034 994 3034 1497 
Q 3034 2003 2786 2293 
Q 2538 2584 2113 2584 
z
M 3366 4563 
L 3366 3988 
Q 3128 4100 2886 4159 
Q 2644 4219 2406 4219 
Q 1781 4219 1451 3797 
Q 1122 3375 1075 2522 
Q 1259 2794 1537 2939 
Q 1816 3084 2150 3084 
Q 2853 3084 3261 2657 
Q 3669 2231 3669 1497 
Q 3669 778 3244 343 
Q 2819 -91 2113 -91 
Q 1303 -91 875 529 
Q 447 1150 447 2328 
Q 447 3434 972 4092 
Q 1497 4750 2381 4750 
Q 2619 4750 2861 4703 
Q 3103 4656 3366 4563 
z
" id="DejaVuSans-36" transform="scale(0.015625)"/>
      <path d="M 2034 2216 
Q 1584 2216 1326 1975 
Q 1069 1734 1069 1313 
Q 1069 891 1326 650 
Q 1584 409 2034 409 
Q 2484 409 2743 651 
Q 3003 894 3003 1313 
Q 3003 1734 2745 1975 
Q 2488 2216 2034 2216 
z
M 1403 2484 
Q 997 2584 770 2862 
Q 544 3141 544 3541 
Q 544 4100 942 4425 
Q 1341 4750 2034 4750 
Q 2731 4750 3128 4425 
Q 3525 4100 3525 3541 
Q 3525 3141 3298 2862 
Q 3072 2584 2669 2484 
Q 3125 2378 3379 2068 
Q 3634 1759 3634 1313 
Q 3634 634 3220 271 
Q 2806 -91 2034 -91 
Q 1263 -91 848 271 
Q 434 634 434 1313 
Q 434 1759 690 2068 
Q 947 2378 1403 2484 
z
M 1172 3481 
Q 1172 3119 1398 2916 
Q 1625 2713 2034 2713 
Q 2441 2713 2670 2916 
Q 2900 3119 2900 3481 
Q 2900 3844 2670 4047 
Q 2441 4250 2034 4250 
Q 1625 4250 1398 4047 
Q 1172 3844 1172 3481 
z
" id="DejaVuSans-38" transform="scale(0.015625)"/>
     </defs>
     <use xlink:href="#DejaVuSans-36"/>
     <use x="63.623047" xlink:href="#DejaVuSans-2e"/>
     <use x="95.410156" xlink:href="#DejaVuSans-38"/>
     <use x="159.033203" xlink:href="#DejaVuSans-33"/>
     <use x="222.65625" xlink:href="#DejaVuSans-20"/>
     <use x="254.443359" xlink:href="#DejaVuSans-6e"/>
     <use x="317.822266" xlink:href="#DejaVuSans-48"/>
    </g>
   </g>
   <g id="text_5">
    <!-- 25.03 nH -->
    <g transform="translate(316.898438 25.869394)scale(0.12 -0.12)">
     <use xlink:href="#DejaVuSans-32"/>
     <use x="63.623047" xlink:href="#DejaVuSans-35"/>
     <use x="127.246094" xlink:href="#DejaVuSans-2e"/>
     <use x="159.033203" xlink:href="#DejaVuSans-30"/>
     <use x="222.65625" xlink:href="#DejaVuSans-33"/>
     <use x="286.279297" xlink:href="#DejaVuSans-20"/>
     <use x="318.066406" xlink:href="#DejaVuSans-6e"/>
     <use x="381.445312" xlink:href="#DejaVuSans-48"/>
    </g>
   </g>
   <g id="text_6">
    <!-- 4.22 pF -->
    <g transform="translate(413.570625 22.044375)scale(0.12 -0.12)">
     <use xlink:href="#DejaVuSans-34"/>
     <use x="63.623047" xlink:href="#DejaVuSans-2e"/>
     <use x="95.410156" xlink:href="#DejaVuSans-32"/>
     <use x="159.033203" xlink:href="#DejaVuSans-32"/>
     <use x="222.65625" xlink:href="#DejaVuSans-20"/>
     <use x="254.443359" xlink:href="#DejaVuSans-70"/>
     <use x="317.919922" xlink:href="#DejaVuSans-46"/>
    </g>
   </g>
   <g id="patch_14">
    <path clip-path="url(#p5d2975a054)" d="M 53.596875 37.545 
C 54.205516 37.545 54.789311 37.303184 55.219685 36.87281 
C 55.650059 36.442436 55.891875 35.858641 55.891875 35.25 
C 55.891875 34.641359 55.650059 34.057564 55.219685 33.62719 
C 54.789311 33.196816 54.205516 32.955 53.596875 32.955 
C 52.988234 32.955 52.404439 33.196816 51.974065 33.62719 
C 51.543691 34.057564 51.301875 34.641359 51.301875 35.25 
C 51.301875 35.858641 51.543691 36.442436 51.974065 36.87281 
C 52.404439 37.303184 52.988234 37.545 53.596875 37.545 
z
" style="stroke:#000000;stroke-linejoin:miter;"/>
   </g>
   <g id="patch_15">
    <path clip-path="url(#p5d2975a054)" d="M 298.396875 37.545 
C 299.005516 37.545 299.589311 37.303184 300.019685 36.87281 
C 300.450059 36.442436 300.691875 35.858641 300.691875 35.25 
C 300.691875 34.641359 300.450059 34.057564 300.019685 33.62719 
C 299.589311 33.196816 299.005516 32.955 298.396875 32.955 
C 297.788234 32.955 297.204439 33.196816 296.774065 33.62719 
C 296.343691 34.057564 296.101875 34.641359 296.101875 35.25 
C 296.101875 35.858641 296.343691 36.442436 296.774065 36.87281 
C 297.204439 37.303184 297.788234 37.545 298.396875 37.545 
z
" style="stroke:#000000;stroke-linejoin:miter;stroke-width:2;"/>
   </g>
   <g id="patch_16">
    <path clip-path="url(#p5d2975a054)" d="M 298.396875 98.745 
C 299.005516 98.745 299.589311 98.503184 300.019685 98.07281 
C 300.450059 97.642436 300.691875 97.058641 300.691875 96.45 
C 300.691875 95.841359 300.450059 95.257564 300.019685 94.82719 
C 299.589311 94.396816 299.005516 94.155 298.396875 94.155 
C 297.788234 94.155 297.204439 94.396816 296.774065 94.82719 
C 296.343691 95.257564 296.101875 95.841359 296.101875 96.45 
C 296.101875 97.058641 296.343691 97.642436 296.774065 98.07281 
C 297.204439 98.503184 297.788234 98.745 298.396875 98.745 
z
" style="stroke:#000000;stroke-linejoin:miter;stroke-width:2;"/>
   </g>
   <g id="patch_17">
    <path clip-path="url(#p5d2975a054)" d="M 543.196875 37.545 
C 543.805516 37.545 544.389311 37.303184 544.819685 36.87281 
C 545.250059 36.442436 545.491875 35.858641 545.491875 35.25 
C 545.491875 34.641359 545.250059 34.057564 544.819685 33.62719 
C 544.389311 33.196816 543.805516 32.955 543.196875 32.955 
C 542.588234 32.955 542.004439 33.196816 541.574065 33.62719 
C 541.143691 34.057564 540.901875 34.641359 540.901875 35.25 
C 540.901875 35.858641 541.143691 36.442436 541.574065 36.87281 
C 542.004439 37.303184 542.588234 37.545 543.196875 37.545 
z
" style="stroke:#000000;stroke-linejoin:miter;"/>
   </g>
   <g id="text_7">
    <!-- ZS = 50.0 Ohm -->
    <g transform="translate(7.2 27.399375)scale(0.12 -0.12)">
     <defs>
      <path d="M 359 4666 
L 4025 4666 
L 4025 4184 
L 1075 531 
L 4097 531 
L 4097 0 
L 288 0 
L 288 481 
L 3238 4134 
L 359 4134 
L 359 4666 
z
" id="DejaVuSans-5a" transform="scale(0.015625)"/>
      <path d="M 3425 4513 
L 3425 3897 
Q 3066 4069 2747 4153 
Q 2428 4238 2131 4238 
Q 1616 4238 1336 4038 
Q 1056 3838 1056 3469 
Q 1056 3159 1242 3001 
Q 1428 2844 1947 2747 
L 2328 2669 
Q 3034 2534 3370 2195 
Q 3706 1856 3706 1288 
Q 3706 609 3251 259 
Q 2797 -91 1919 -91 
Q 1588 -91 1214 -16 
Q 841 59 441 206 
L 441 856 
Q 825 641 1194 531 
Q 1563 422 1919 422 
Q 2459 422 2753 634 
Q 3047 847 3047 1241 
Q 3047 1584 2836 1778 
Q 2625 1972 2144 2069 
L 1759 2144 
Q 1053 2284 737 2584 
Q 422 2884 422 3419 
Q 422 4038 858 4394 
Q 1294 4750 2059 4750 
Q 2388 4750 2728 4690 
Q 3069 4631 3425 4513 
z
" id="DejaVuSans-53" transform="scale(0.015625)"/>
      <path d="M 678 2906 
L 4684 2906 
L 4684 2381 
L 678 2381 
L 678 2906 
z
M 678 1631 
L 4684 1631 
L 4684 1100 
L 678 1100 
L 678 1631 
z
" id="DejaVuSans-3d" transform="scale(0.015625)"/>
      <path d="M 2522 4238 
Q 1834 4238 1429 3725 
Q 1025 3213 1025 2328 
Q 1025 1447 1429 934 
Q 1834 422 2522 422 
Q 3209 422 3611 934 
Q 4013 1447 4013 2328 
Q 4013 3213 3611 3725 
Q 3209 4238 2522 4238 
z
M 2522 4750 
Q 3503 4750 4090 4092 
Q 4678 3434 4678 2328 
Q 4678 1225 4090 567 
Q 3503 -91 2522 -91 
Q 1538 -91 948 565 
Q 359 1222 359 2328 
Q 359 3434 948 4092 
Q 1538 4750 2522 4750 
z
" id="DejaVuSans-4f" transform="scale(0.015625)"/>
      <path d="M 3513 2113 
L 3513 0 
L 2938 0 
L 2938 2094 
Q 2938 2591 2744 2837 
Q 2550 3084 2163 3084 
Q 1697 3084 1428 2787 
Q 1159 2491 1159 1978 
L 1159 0 
L 581 0 
L 581 4863 
L 1159 4863 
L 1159 2956 
Q 1366 3272 1645 3428 
Q 1925 3584 2291 3584 
Q 2894 3584 3203 3211 
Q 3513 2838 3513 2113 
z
" id="DejaVuSans-68" transform="scale(0.015625)"/>
      <path d="M 3328 2828 
Q 3544 3216 3844 3400 
Q 4144 3584 4550 3584 
Q 5097 3584 5394 3201 
Q 5691 2819 5691 2113 
L 5691 0 
L 5113 0 
L 5113 2094 
Q 5113 2597 4934 2840 
Q 4756 3084 4391 3084 
Q 3944 3084 3684 2787 
Q 3425 2491 3425 1978 
L 3425 0 
L 2847 0 
L 2847 2094 
Q 2847 2600 2669 2842 
Q 2491 3084 2119 3084 
Q 1678 3084 1418 2786 
Q 1159 2488 1159 1978 
L 1159 0 
L 581 0 
L 581 3500 
L 1159 3500 
L 1159 2956 
Q 1356 3278 1631 3431 
Q 1906 3584 2284 3584 
Q 2666 3584 2933 3390 
Q 3200 3197 3328 2828 
z
" id="DejaVuSans-6d" transform="scale(0.015625)"/>
     </defs>
     <use xlink:href="#DejaVuSans-5a"/>
     <use x="68.505859" xlink:href="#DejaVuSans-53"/>
     <use x="131.982422" xlink:href="#DejaVuSans-20"/>
     <use x="163.769531" xlink:href="#DejaVuSans-3d"/>
     <use x="247.558594" xlink:href="#DejaVuSans-20"/>
     <use x="279.345703" xlink:href="#DejaVuSans-35"/>
     <use x="342.96875" xlink:href="#DejaVuSans-30"/>
     <use x="406.591797" xlink:href="#DejaVuSans-2e"/>
     <use x="438.378906" xlink:href="#DejaVuSans-30"/>
     <use x="502.001953" xlink:href="#DejaVuSans-20"/>
     <use x="533.789062" xlink:href="#DejaVuSans-4f"/>
     <use x="612.5" xlink:href="#DejaVuSans-68"/>
     <use x="675.878906" xlink:href="#DejaVuSans-6d"/>
    </g>
   </g>
   <g id="text_8">
    <!-- ZL = 50.0 Ohm -->
    <g transform="translate(497.265937 27.399375)scale(0.12 -0.12)">
     <defs>
      <path d="M 628 4666 
L 1259 4666 
L 1259 531 
L 3531 531 
L 3531 0 
L 628 0 
L 628 4666 
z
" id="DejaVuSans-4c" transform="scale(0.015625)"/>
     </defs>
     <use xlink:href="#DejaVuSans-5a"/>
     <use x="68.505859" xlink:href="#DejaVuSans-4c"/>
     <use x="124.21875" xlink:href="#DejaVuSans-20"/>
     <use x="156.005859" xlink:href="#DejaVuSans-3d"/>
     <use x="239.794922" xlink:href="#DejaVuSans-20"/>
     <use x="271.582031" xlink:href="#DejaVuSans-35"/>
     <use x="335.205078" xlink:href="#DejaVuSans-30"/>
     <use x="398.828125" xlink:href="#DejaVuSans-2e"/>
     <use x="430.615234" xlink:href="#DejaVuSans-30"/>
     <use x="494.238281" xlink:href="#DejaVuSans-20"/>
     <use x="526.025391" xlink:href="#DejaVuSans-4f"/>
     <use x="604.736328" xlink:href="#DejaVuSans-68"/>
     <use x="668.115234" xlink:href="#DejaVuSans-6d"/>
    </g>
   </g>
  </g>
 </g>
 <defs>
  <clipPath id="p5d2975a054">
   <rect height="203.694" width="573.1074" x="13.113075" y="7.2"/>
  </clipPath>
 </defs>
</svg>
